<svg width="64" height="64" viewBox="0 0 64 64" fill="none" xmlns="http://www.w3.org/2000/svg">
<g filter="url(#filter0_d_801_1200)">
<path d="M9.67383 31.7864C9.67383 19.5741 19.5738 9.67407 31.7861 9.67407C43.9984 9.67407 53.8984 19.5741 53.8984 31.7864C53.8984 43.9987 43.9984 53.8987 31.7861 53.8987C19.5738 53.8987 9.67383 43.9987 9.67383 31.7864Z" fill="#51BC4A" fill-opacity="0.2" shape-rendering="crispEdges"/>
<g clip-path="url(#clip0_801_1200)">
<g clip-path="url(#clip1_801_1200)">
<path d="M37.9208 15.2021H20.5906C19.4297 15.2021 18.5176 16.1143 18.5176 17.2751V46.2971C18.5176 47.458 19.4297 48.3701 20.5906 48.3701H42.979C44.1398 48.3701 45.052 47.458 45.052 46.2971V22.3333L37.9208 15.2021ZM38.4184 18.0214L42.2327 21.8357H38.833C38.5842 21.8357 38.4184 21.6699 38.4184 21.4211V18.0214ZM43.3936 46.2971C43.3936 46.5459 43.2277 46.7117 42.979 46.7117H20.5906C20.3418 46.7117 20.176 46.5459 20.176 46.2971V17.2751C20.176 17.0264 20.3418 16.8605 20.5906 16.8605H36.76V21.4211C36.76 22.582 37.6721 23.4941 38.833 23.4941H43.3936V46.2971Z" fill="#51BC4A"/>
<path d="M38.5856 29.2982H31.1228C30.6253 29.2982 30.2107 28.9665 30.2107 28.469C30.2107 27.9715 30.6253 27.6398 31.1228 27.6398H38.5856C39.0831 27.6398 39.4977 27.9715 39.4977 28.469C39.4977 28.9665 39.0831 29.2982 38.5856 29.2982ZM39.2489 35.1026H24.3233C23.8258 35.1026 23.4941 34.7709 23.4941 34.2734C23.4941 33.7759 23.8258 33.4442 24.3233 33.4442H39.2489C39.7464 33.4442 40.0781 33.7759 40.0781 34.2734C40.0781 34.7709 39.7464 35.1026 39.2489 35.1026ZM39.2489 38.4194H24.3233C23.8258 38.4194 23.4941 38.0877 23.4941 37.5902C23.4941 37.0927 23.8258 36.761 24.3233 36.761H39.2489C39.7464 36.761 40.0781 37.0927 40.0781 37.5902C40.0781 38.0877 39.7464 38.4194 39.2489 38.4194ZM39.2489 41.7362H24.3233C23.8258 41.7362 23.4941 41.4045 23.4941 40.907C23.4941 40.4095 23.8258 40.0778 24.3233 40.0778H39.2489C39.7464 40.0778 40.0781 40.4095 40.0781 40.907C40.0781 41.4045 39.7464 41.7362 39.2489 41.7362ZM38.5856 25.9814H31.1228C30.6253 25.9814 30.2107 25.6497 30.2107 25.1522C30.2107 24.6547 30.6253 24.323 31.1228 24.323H38.5856C39.0831 24.323 39.4977 24.6547 39.4977 25.1522C39.4977 25.6497 39.0831 25.9814 38.5856 25.9814Z" fill="#51BC4A"/>
<path d="M27.5572 28.5524C27.3914 28.8012 27.2255 29.0499 26.8939 29.2158C26.728 29.2987 26.4793 29.3816 26.3134 29.3816V30.8741C26.0647 30.9571 25.8159 30.9571 25.6501 30.9571C25.4013 30.9571 25.1525 30.9571 24.9867 30.8741V29.3816C24.8209 29.3816 24.655 29.2987 24.5721 29.2158C24.2404 29.0499 23.9917 28.8012 23.8258 28.5524C23.5771 28.2207 23.4941 27.889 23.4941 27.3086H24.9867C24.9867 28.1378 25.3184 28.2207 25.5671 28.2207C25.733 28.2207 25.8159 28.2207 25.8988 28.1378C25.9817 28.0549 25.9817 27.889 25.9817 27.7232C25.9817 27.3915 25.9817 27.2257 25.8988 27.1428C25.5671 26.8111 25.1525 26.4794 24.655 26.1477C24.0746 25.816 23.7429 25.7331 23.66 25.4014C23.5771 25.1527 23.4941 24.821 23.4941 24.4893C23.4941 23.9918 23.5771 23.5772 23.66 23.3284C23.8258 23.0797 23.9917 22.9138 24.3233 22.748C24.5721 22.6651 24.7379 22.5822 24.9038 22.4992V21.1725C25.1525 21.0896 25.3184 21.0896 25.5671 21.0896C25.8159 21.0896 26.0647 21.0896 26.2305 21.1725V22.5822C26.3963 22.5822 26.4793 22.6651 26.5622 22.6651C26.8939 22.748 27.1426 22.9138 27.3085 23.0797C27.4743 23.2455 27.5572 23.4114 27.6401 23.5772C27.6401 23.743 27.7231 23.9918 27.7231 24.3235V24.4893H26.1476V24.3235C26.1476 23.5772 25.8159 23.6601 25.5671 23.6601C25.4842 23.6601 25.4013 23.6601 25.3184 23.743C25.2355 23.826 25.2355 23.9089 25.2355 24.0747C25.2355 24.2406 25.2355 24.4064 25.3184 24.4893C25.3184 24.5722 25.4013 24.6552 25.5671 24.821C25.733 24.9039 25.8159 24.9868 26.2305 25.2356C26.8109 25.4844 27.3914 25.899 27.5572 26.1477C27.7231 26.3965 27.7231 26.7282 27.7231 27.2257C27.6401 27.6403 27.7231 28.3036 27.5572 28.5524Z" fill="#51BC4A"/>
</g>
</g>
</g>
<defs>
<filter id="filter0_d_801_1200" x="-0.000305176" y="-6.10352e-05" width="63.5729" height="63.5729" filterUnits="userSpaceOnUse" color-interpolation-filters="sRGB">
<feFlood flood-opacity="0" result="BackgroundImageFix"/>
<feColorMatrix in="SourceAlpha" type="matrix" values="0 0 0 0 0 0 0 0 0 0 0 0 0 0 0 0 0 0 127 0" result="hardAlpha"/>
<feMorphology radius="9.67413" operator="dilate" in="SourceAlpha" result="effect1_dropShadow_801_1200"/>
<feOffset/>
<feComposite in2="hardAlpha" operator="out"/>
<feColorMatrix type="matrix" values="0 0 0 0 0.317647 0 0 0 0 0.737255 0 0 0 0 0.290196 0 0 0 0.1 0"/>
<feBlend mode="normal" in2="BackgroundImageFix" result="effect1_dropShadow_801_1200"/>
<feBlend mode="normal" in="SourceGraphic" in2="effect1_dropShadow_801_1200" result="shape"/>
</filter>
<clipPath id="clip0_801_1200">
<rect width="33.168" height="33.168" fill="white" transform="translate(15.2012 15.2021)"/>
</clipPath>
<clipPath id="clip1_801_1200">
<rect width="33.168" height="33.168" fill="white" transform="translate(15.2012 15.2021)"/>
</clipPath>
</defs>
</svg>
