<svg width="64" height="64" viewBox="0 0 64 64" fill="none" xmlns="http://www.w3.org/2000/svg">
<g filter="url(#filter0_d_801_1214)">
<path d="M9.67383 31.7864C9.67383 19.5741 19.5738 9.67407 31.7861 9.67407C43.9984 9.67407 53.8984 19.5741 53.8984 31.7864C53.8984 43.9987 43.9984 53.8987 31.7861 53.8987C19.5738 53.8987 9.67383 43.9987 9.67383 31.7864Z" fill="#51BC4A" fill-opacity="0.2" shape-rendering="crispEdges"/>
<path fill-rule="evenodd" clip-rule="evenodd" d="M28.4102 46.7021H20.1602V27.2021H28.4102V15.2021H43.4102V46.7021H28.4102ZM32.9102 44.4521H22.4102V29.4521H32.9102V44.4521ZM35.1602 44.4521H41.1602V17.4521H30.6602V27.2021H35.1602V44.4521ZM35.1602 19.7021H32.9102V21.9521H35.1602V19.7021ZM24.6602 30.9521H26.9102V33.2021H24.6602V30.9521ZM24.6602 34.7021H26.9102V36.9521H24.6602V34.7021ZM24.6602 38.4521H26.9102V40.7021H24.6602V38.4521ZM35.1602 23.4521H32.9102V25.7021H35.1602V23.4521ZM28.4102 34.7021H30.6602V36.9521H28.4102V34.7021ZM30.6602 30.9521H28.4102V33.2021H30.6602V30.9521ZM36.6602 19.7021H38.9102V21.9521H36.6602V19.7021ZM38.9102 27.2021H36.6602V29.4521H38.9102V27.2021ZM36.6602 34.7021H38.9102V36.9521H36.6602V34.7021ZM30.6602 38.4521H28.4102V40.7021H30.6602V38.4521ZM36.6602 23.4521H38.9102V25.7021H36.6602V23.4521ZM38.9102 30.9521H36.6602V33.2021H38.9102V30.9521ZM36.6602 38.4521H38.9102V40.7021H36.6602V38.4521Z" fill="#51BC4A"/>
</g>
<defs>
<filter id="filter0_d_801_1214" x="-0.000305176" y="-6.10352e-05" width="63.5729" height="63.5729" filterUnits="userSpaceOnUse" color-interpolation-filters="sRGB">
<feFlood flood-opacity="0" result="BackgroundImageFix"/>
<feColorMatrix in="SourceAlpha" type="matrix" values="0 0 0 0 0 0 0 0 0 0 0 0 0 0 0 0 0 0 127 0" result="hardAlpha"/>
<feMorphology radius="9.67413" operator="dilate" in="SourceAlpha" result="effect1_dropShadow_801_1214"/>
<feOffset/>
<feComposite in2="hardAlpha" operator="out"/>
<feColorMatrix type="matrix" values="0 0 0 0 0.317647 0 0 0 0 0.737255 0 0 0 0 0.290196 0 0 0 0.1 0"/>
<feBlend mode="normal" in2="BackgroundImageFix" result="effect1_dropShadow_801_1214"/>
<feBlend mode="normal" in="SourceGraphic" in2="effect1_dropShadow_801_1214" result="shape"/>
</filter>
</defs>
</svg>
