<svg width="64" height="64" viewBox="0 0 64 64" fill="none" xmlns="http://www.w3.org/2000/svg">
<g filter="url(#filter0_d_786_5233)">
<rect x="9.67383" y="9.67407" width="44.2246" height="44.2246" rx="22.1123" fill="#51BC4A" fill-opacity="0.2" shape-rendering="crispEdges"/>
<path d="M23.8387 27.2949H23.1476C22.3844 27.2949 21.7656 27.9137 21.7656 28.6769V36.278C21.7656 37.0413 22.3844 37.6601 23.1476 37.6601H23.8387C24.6019 37.6601 25.2207 37.0413 25.2207 36.278V28.6769C25.2207 27.9137 24.6019 27.2949 23.8387 27.2949Z" stroke="#51BC4A" stroke-width="2.07303" stroke-linecap="round" stroke-linejoin="round"/>
<path d="M32.1316 21.7666H31.4406C30.6773 21.7666 30.0586 22.3854 30.0586 23.1486V36.2778C30.0586 37.0411 30.6773 37.6598 31.4406 37.6598H32.1316C32.8949 37.6598 33.5136 37.0411 33.5136 36.2778V23.1486C33.5136 22.3854 32.8949 21.7666 32.1316 21.7666Z" stroke="#51BC4A" stroke-width="2.07303" stroke-linecap="round" stroke-linejoin="round"/>
<path d="M21.7656 41.8057H41.8049" stroke="#51BC4A" stroke-width="2.07303" stroke-linecap="round" stroke-linejoin="round"/>
<path d="M40.4226 27.2949H39.7316C38.9683 27.2949 38.3496 27.9137 38.3496 28.6769V36.278C38.3496 37.0413 38.9683 37.6601 39.7316 37.6601H40.4226C41.1859 37.6601 41.8047 37.0413 41.8047 36.278V28.6769C41.8047 27.9137 41.1859 27.2949 40.4226 27.2949Z" stroke="#51BC4A" stroke-width="2.07303" stroke-linecap="round" stroke-linejoin="round"/>
</g>
<defs>
<filter id="filter0_d_786_5233" x="-0.000305176" y="-6.10352e-05" width="63.5729" height="63.5729" filterUnits="userSpaceOnUse" color-interpolation-filters="sRGB">
<feFlood flood-opacity="0" result="BackgroundImageFix"/>
<feColorMatrix in="SourceAlpha" type="matrix" values="0 0 0 0 0 0 0 0 0 0 0 0 0 0 0 0 0 0 127 0" result="hardAlpha"/>
<feMorphology radius="9.67413" operator="dilate" in="SourceAlpha" result="effect1_dropShadow_786_5233"/>
<feOffset/>
<feComposite in2="hardAlpha" operator="out"/>
<feColorMatrix type="matrix" values="0 0 0 0 0.317647 0 0 0 0 0.737255 0 0 0 0 0.290196 0 0 0 0.1 0"/>
<feBlend mode="normal" in2="BackgroundImageFix" result="effect1_dropShadow_786_5233"/>
<feBlend mode="normal" in="SourceGraphic" in2="effect1_dropShadow_786_5233" result="shape"/>
</filter>
</defs>
</svg>
