<svg width="56" height="56" viewBox="0 0 56 56" fill="none" xmlns="http://www.w3.org/2000/svg">
<g clip-path="url(#clip0_801_1154)">
<g clip-path="url(#clip1_801_1154)">
<path d="M28 56C43.464 56 56 43.464 56 28C56 12.536 43.464 0 28 0C12.536 0 0 12.536 0 28C0 43.464 12.536 56 28 56Z" fill="#0084C8" fill-opacity="0.1"/>
<path d="M27.9993 47.8337C38.953 47.8337 47.8327 38.954 47.8327 28.0003C47.8327 17.0467 38.953 8.16699 27.9993 8.16699C17.0457 8.16699 8.16602 17.0467 8.16602 28.0003C8.16602 38.954 17.0457 47.8337 27.9993 47.8337Z" fill="#0084C8" fill-opacity="0.2"/>
<path fill-rule="evenodd" clip-rule="evenodd" d="M24.2046 25.0373C24.1718 25.0033 24.1384 24.97 24.1046 24.9373C22.5254 23.4133 20.0097 23.4581 18.4857 25.0373L18.4061 25.1198C16.8108 26.7728 16.8108 29.3921 18.4061 31.0452C18.4378 31.0781 18.4703 31.1105 18.5033 31.1424C20.0385 32.6239 22.4841 32.5804 23.9656 31.0452L26.984 27.9174L24.2046 25.0373ZM32.0352 31.0452C33.5168 32.5804 35.9623 32.6239 37.4977 31.1424C37.5306 31.1105 37.563 31.0781 37.5947 31.0452C39.19 29.3921 39.19 26.7728 37.5947 25.1198L37.5152 25.0373C35.9912 23.4581 33.4755 23.4133 31.8963 24.9373C31.8624 24.97 31.8291 25.0033 31.7963 25.0373L29.0169 27.9174L32.0352 31.0452ZM28.0004 26.6606L29.0754 25.5467H29.1547L29.1152 25.5056L30.642 23.9234C30.688 23.8756 30.7347 23.829 30.7823 23.7829C32.9991 21.6437 36.5303 21.7066 38.6695 23.9234L38.7492 24.0058C40.9441 26.2804 40.9441 29.8846 38.7492 32.1591C38.7041 32.2058 38.6583 32.2516 38.6116 32.2966C36.4388 34.3935 32.9777 34.3319 30.8809 32.1591L29.1152 30.3293L29.1547 30.2882H29.0754L28.0004 29.1742L26.9255 30.2882H26.8461L26.8858 30.3293L25.1199 32.1591C23.0232 34.3319 19.562 34.3935 17.3894 32.2966C17.3427 32.2516 17.2967 32.2058 17.2517 32.1591C15.0567 29.8846 15.0567 26.2804 17.2517 24.0058L17.3314 23.9234C19.4706 21.7066 23.0018 21.6437 25.2185 23.7829C25.2661 23.829 25.3129 23.8756 25.3589 23.9234L26.8858 25.5056L26.8461 25.5467H26.9255L28.0004 26.6606Z" fill="#0794D4"/>
</g>
</g>
<defs>
<clipPath id="clip0_801_1154">
<rect width="56" height="56" fill="white"/>
</clipPath>
<clipPath id="clip1_801_1154">
<rect width="56" height="56" fill="white"/>
</clipPath>
</defs>
</svg>
