<svg width="56" height="56" viewBox="0 0 56 56" fill="none" xmlns="http://www.w3.org/2000/svg">
<g clip-path="url(#clip0_801_1257)">
<g clip-path="url(#clip1_801_1257)">
<g clip-path="url(#clip2_801_1257)">
<path d="M28 56C43.464 56 56 43.464 56 28C56 12.536 43.464 0 28 0C12.536 0 0 12.536 0 28C0 43.464 12.536 56 28 56Z" fill="#0084C8" fill-opacity="0.1"/>
<path d="M27.9993 47.8337C38.953 47.8337 47.8327 38.954 47.8327 28.0003C47.8327 17.0467 38.953 8.16699 27.9993 8.16699C17.0457 8.16699 8.16602 17.0467 8.16602 28.0003C8.16602 38.954 17.0457 47.8337 27.9993 47.8337Z" fill="#0084C8" fill-opacity="0.2"/>
<path d="M28.0866 15.3699C31.7872 15.3699 34.8026 18.3852 34.8026 22.0859C34.8026 23.1823 34.5284 24.2788 33.9802 25.2383C33.9117 25.3068 33.9117 25.4438 33.8431 25.5124L31.239 33.1192H25.1398L22.193 25.4438C22.193 25.3753 22.1244 25.3068 22.0559 25.2383C21.5077 24.2788 21.2335 23.1823 21.2335 22.0173C21.3706 18.3852 24.3859 15.3699 28.0866 15.3699ZM28.0866 13.9993C23.6321 13.9993 20 17.6314 20 22.0859C20 23.4565 20.3427 24.8271 20.9594 25.9236L24.2489 34.4899H32.2669L35.2137 25.9236C35.8305 24.7585 36.1732 23.4565 36.1732 22.0859C36.1732 17.6314 32.5411 13.9993 28.0866 13.9993Z" fill="#0794D4"/>
<path d="M33.8432 25.855C33.8432 25.9235 33.7747 25.992 33.7061 26.0606L33.8432 25.855ZM22.4671 26.0606C22.3986 25.992 22.3986 25.9235 22.3301 25.855L22.4671 26.0606ZM28.2237 23.1138C28.909 23.1138 29.5258 23.662 29.5258 24.4158C29.5258 25.1697 28.9775 25.7179 28.2237 25.7179C27.4699 25.7179 26.9216 25.1697 26.9216 24.4158C26.9216 23.662 27.4699 23.1138 28.2237 23.1138ZM28.2237 21.7432C26.7846 21.7432 25.551 22.9082 25.551 24.4158C25.551 25.9235 26.716 27.0885 28.2237 27.0885C29.7314 27.0885 30.8964 25.9235 30.8964 24.4158C30.8964 22.9082 29.6628 21.7432 28.2237 21.7432ZM28.1552 41.0002C26.6475 41.0002 25.4825 39.9722 25.4825 38.7387V37.9163C25.4825 37.5052 25.7566 37.231 26.1678 37.231H30.074C30.4852 37.231 30.7593 37.5052 30.7593 37.9163V38.7387C30.7593 39.9722 29.5943 41.0002 28.1552 41.0002ZM26.8531 38.6016V38.7387C26.8531 39.2184 27.4013 39.6296 28.0866 39.6296H28.1552C28.8405 39.6296 29.3887 39.2184 29.3887 38.7387V38.6016H26.8531Z" fill="#0794D4"/>
<path d="M30.9641 38.6702H25.4817C24.3167 38.6702 23.4258 37.9164 23.4258 36.9569C23.4258 35.9975 24.3167 35.2437 25.4817 35.2437H30.9641C32.1291 35.2437 33.02 35.9975 33.02 36.9569C33.02 37.9164 32.1291 38.6702 30.9641 38.6702ZM25.4132 36.6143C25.002 36.6143 24.7279 36.8199 24.7279 36.9569C24.7279 37.094 25.002 37.2996 25.4132 37.2996H30.8956C31.3068 37.2996 31.5809 37.094 31.5809 36.9569C31.5809 36.8199 31.3068 36.6143 30.8956 36.6143H25.4132ZM28.2229 33.8731C27.8117 33.8731 27.5376 33.5989 27.5376 33.1878V26.3347C27.5376 25.9235 27.8117 25.6494 28.2229 25.6494C28.6341 25.6494 28.9082 25.9235 28.9082 26.3347V33.1878C28.9082 33.5304 28.5656 33.8731 28.2229 33.8731Z" fill="#0794D4"/>
<path d="M30.9641 36.614H25.4817C24.3167 36.614 23.4258 35.8602 23.4258 34.9008C23.4258 33.9413 24.3167 33.1875 25.4817 33.1875H30.9641C32.1291 33.1875 33.02 33.9413 33.02 34.9008C33.02 35.8602 32.1291 36.614 30.9641 36.614ZM25.4132 34.5581C25.002 34.5581 24.7279 34.7637 24.7279 34.9008C24.7279 35.0378 25.002 35.2434 25.4132 35.2434H30.8956C31.3068 35.2434 31.5809 35.0378 31.5809 34.9008C31.5809 34.7637 31.3068 34.5581 30.8956 34.5581H25.4132Z" fill="#0794D4"/>
</g>
</g>
</g>
<defs>
<clipPath id="clip0_801_1257">
<path d="M0 28C0 12.536 12.536 0 28 0C43.464 0 56 12.536 56 28C56 43.464 43.464 56 28 56C12.536 56 0 43.464 0 28Z" fill="white"/>
</clipPath>
<clipPath id="clip1_801_1257">
<rect width="56" height="56" fill="white"/>
</clipPath>
<clipPath id="clip2_801_1257">
<rect width="56" height="56" fill="white"/>
</clipPath>
</defs>
</svg>
